<svg version="1.1" id="bennys" xmlns="http://www.w3.org/2000/svg" xmlns:xlink="http://www.w3.org/1999/xlink" x="0px" y="0px" viewBox="0 0 96 96" style="enable-background:new 0 0 96 96;" xml:space="preserve">
	<style type="text/css">
		.st0{fill:#6427E6;}
		.st1{fill:#FFFFFF;}
	</style>

	<path class="st0" d="M10,0h76c5.5,0,10,4.5,10,10v76c0,5.5-4.5,10-10,10H10C4.5,96,0,91.5,0,86V10C0,4.5,4.5,0,10,0z"/>
	<path class="st1" d="M36.4,54.1l1.9-3.7c0.8-1.6,2.4-2.7,4.3-2.7h5.6c0.2,0,0.3,0,0.3,0c2.9-3.8,7.5-6.4,12.8-6.4 c1.9,0,3.7,0.3,5.4,1c-0.6-1-1.4-1.9-2.2-2.5H66c1,0,1.6-0.6,1.6-1.6S67,36.5,66,36.5h-4.5l-1.9-4.8c-1.3-2.9-4.1-4.8-7.3-4.8h-14 c-3.2,0-6.1,1.9-7.3,4.8l-2.1,4.8h-4.3c-1,0-1.6,0.6-1.6,1.6s0.6,1.6,1.6,1.6h1.6c-1.9,1.4-3.2,3.8-3.2,6.4v6.4 c0,1.4,0.6,2.7,1.6,3.5v2.9c0,2.7,2.1,4.8,4.8,4.8h3.2c2.7,0,4.8-2.1,4.8-4.8v-1.6h8c0-1.1,0.2-2.2,0.3-3.2H36.4z M34.2,49.3h-4.8 c-1,0-1.6-0.6-1.6-1.6s0.6-1.6,1.6-1.6h4.8c1,0,1.6,0.6,1.6,1.6S35.1,49.3,34.2,49.3z M31.8,38.1L34,33c0.8-1.8,2.4-2.9,4.3-2.9 h13.9c1.9,0,3.7,1.1,4.5,2.9l2.2,5.1H31.8z"/>
	<path class="st1" d="M73.5,53.9c-0.2-0.8-1.1-1.3-1.9-1.1c-1.1,0.3-1.9,0-2.1-0.3c-0.2-0.3,0-1.1,0.8-2.1c0.6-0.6,0.6-1.6,0-2.2 c-1.6-1.6-3.5-2.7-5.7-3.3c-0.8-0.2-1.8,0.3-1.9,1.1c-0.3,1.1-1,1.6-1.4,1.6s-1-0.6-1.4-1.6c-0.3-0.8-1.1-1.3-1.9-1.1 c-2.2,0.6-4.1,1.8-5.7,3.3c-0.6,0.6-0.6,1.6,0,2.2c0.8,0.8,1,1.6,0.8,2.1c-0.2,0.3-1,0.6-2.1,0.3c-0.8-0.2-1.8,0.3-1.9,1.1 c-0.3,1.1-0.5,2.2-0.5,3.3s0.2,2.2,0.5,3.3c0.2,0.8,1.1,1.3,1.9,1.1c1.1-0.3,1.9,0,2.1,0.3c0.2,0.3,0,1.1-0.8,2.1 c-0.6,0.6-0.6,1.6,0,2.2c1.6,1.6,3.5,2.7,5.7,3.3c0.8,0.2,1.8-0.3,1.9-1.1c0.3-1.1,1-1.6,1.4-1.6s1,0.6,1.4,1.6 c0.2,0.6,0.8,1.1,1.6,1.1c0.2,0,0.3,0,0.5,0c2.2-0.6,4.1-1.8,5.7-3.3c0.6-0.6,0.6-1.6,0-2.2c-0.8-0.8-1-1.6-0.8-2.1 c0.2-0.3,1-0.6,2.1-0.3c0.8,0.2,1.8-0.3,1.9-1.1c0.3-1.1,0.5-2.2,0.5-3.3S73.8,55,73.5,53.9z M61.2,62c-2.7,0-4.8-2.1-4.8-4.8 s2.1-4.8,4.8-4.8c2.7,0,4.8,2.1,4.8,4.8S64,62,61.2,62z"/>
</svg>
