<svg viewBox="0 0 96 96" fill="none" xmlns="http://www.w3.org/2000/svg">
    <rect width="96" height="96" rx="10" fill="#181820"></rect>
    <path d="M59.1304 38.4475C58.4255 37.7361 57.62 37.1321 56.7397 36.6545C50.0699 32.9491 41.5991 38.0411 41.6469 45.6672C41.5433 53.2933 50.0938 58.3853 56.7238 54.6719C62.6765 51.6039 63.9435 43.1092 59.1304 38.4475ZM60.5169 45.6672C60.5169 45.9381 60.5169 46.2011 60.5169 46.4641H53.7913L58.5168 51.1895C58.1734 51.5842 57.7976 51.9494 57.3932 52.2812L52.6677 47.5558V54.2734C52.1375 54.3212 51.6041 54.3212 51.074 54.2734V47.5877L46.3485 52.2812C45.9407 51.9386 45.5647 51.5598 45.2249 51.1497L49.9504 46.4322H43.2646C43.2168 45.902 43.2168 45.3686 43.2646 44.8384H49.9504L45.2249 40.113C45.5646 39.7052 45.9407 39.3291 46.3485 38.9894L51.074 43.7069V37.0609C51.6037 37.0052 52.1379 37.0052 52.6677 37.0609V43.7387L57.3932 39.0212C57.8009 39.361 58.177 39.7371 58.5168 40.1448L53.7913 44.8703H60.4532C60.501 45.1094 60.5169 45.3962 60.5169 45.6672Z" fill="white"></path>
    <path d="M66.0312 31.8334C48.0458 14.8759 21.8684 37.3717 36.3158 57.8594C34.1145 57.3727 31.9519 56.7255 29.8452 55.923C29.8743 55.6828 29.8525 55.4392 29.7811 55.2081C29.7098 54.9769 29.5905 54.7634 29.4311 54.5814C29.2717 54.3995 29.0758 54.2532 28.856 54.1521C28.6363 54.0509 28.3977 53.9972 28.1558 53.9945H27.08C26.6333 53.9945 26.2048 54.1714 25.8882 54.4865C25.5717 54.8016 25.3927 55.2293 25.3906 55.6759V66.8959C25.3906 67.3439 25.5686 67.7737 25.8854 68.0905C26.2023 68.4073 26.6319 68.5853 27.08 68.5853H28.1558C28.5494 68.5846 28.9304 68.4465 29.233 68.1948C29.5356 67.943 29.7409 67.5936 29.8133 67.2067C34.3698 68.3151 39.0311 68.9374 43.7188 69.0634C51.6875 69.0634 60.2619 66.1708 65.7762 60.0667C67.0534 58.7123 68.1271 57.1796 68.9637 55.5166V55.4767C73.2669 48.0737 72.2469 37.9375 66.0312 31.8334ZM28.1558 66.9916H27.08C27.0546 66.9916 27.0303 66.9814 27.0124 66.9635C26.9944 66.9456 26.9844 66.9213 26.9844 66.8959V55.6759C26.9844 55.6506 26.9944 55.6262 27.0124 55.6083C27.0303 55.5903 27.0546 55.5803 27.08 55.5803H28.1558C28.1811 55.5803 28.2055 55.5903 28.2234 55.6083C28.2413 55.6262 28.2514 55.6506 28.2514 55.6759V66.8959C28.2514 66.9213 28.2413 66.9456 28.2234 66.9635C28.2055 66.9814 28.1811 66.9916 28.1558 66.9916ZM51.8708 57.3414C48.7791 57.3267 45.8182 56.0921 43.632 53.9059C41.4459 51.7197 40.2112 48.7588 40.1966 45.6672C40.842 30.1839 62.9075 30.1839 63.545 45.6672C63.5429 48.7627 62.3122 51.7308 60.1234 53.9198C57.9345 56.1086 54.9663 57.3393 51.8708 57.3414Z" fill="white"></path>
</svg>