<svg version="1.1" id="unknown" xmlns="http://www.w3.org/2000/svg" xmlns:xlink="http://www.w3.org/1999/xlink" x="0px" y="0px" viewBox="0 0 96 96" style="enable-background:new 0 0 96 96;" xml:space="preserve">
	<style type="text/css">
		.st0{fill:#FFFFFF;}
	</style>

	<path d="M10,0h76c5.5,0,10,4.5,10,10v76c0,5.5-4.5,10-10,10H10C4.5,96,0,91.5,0,86V10C0,4.5,4.5,0,10,0z"/>
	<path class="st0" d="M71.9,27.2c-0.3-0.3-0.7-0.4-1.1-0.4c0,0,0,0,0,0c-1.1,0-2.1-0.4-2.8-1.2c-0.8-0.8-1.2-1.8-1.2-2.9 c0-0.4-0.2-0.8-0.4-1.1c-0.3-0.3-0.7-0.4-1.1-0.4H29.1c-0.4,0-0.8,0.2-1.1,0.4c-0.3,0.3-0.4,0.7-0.4,1.1c0,1.1-0.4,2.1-1.2,2.9 c-0.8,0.8-1.8,1.2-2.8,1.2c0,0,0,0,0,0c-0.4,0-0.8,0.2-1.1,0.4c-0.3,0.3-0.4,0.7-0.4,1.1c0,5.1,0.7,12.9,4.1,21.1 c4,9.8,10.8,17.8,20.2,23.6c0.2,0.2,0.5,0.2,0.8,0.2c0.3,0,0.6-0.1,0.8-0.2c9.4-5.8,16.2-13.8,20.2-23.6c3.4-8.2,4.1-16,4.1-21.1 C72.3,27.8,72.2,27.4,71.9,27.2z M47.2,69.9C28.9,58,25.4,40.1,25.1,29.6c1.3-0.3,2.5-0.9,3.5-1.9c1-1,1.6-2.2,1.9-3.5h33.4 c0.3,1.3,0.9,2.5,1.9,3.5c1,1,2.2,1.6,3.5,1.9C69,40.1,65.5,58,47.2,69.9z"/>
	<path class="st0" d="M60.6,46.2c-0.7-0.4-1.7-0.1-2.1,0.6l-1.3,2.4h-4.1l-1.5-2.5c-0.3-0.5-0.8-0.7-1.3-0.7h-6.2 c-0.5,0-1,0.3-1.3,0.7l-1.5,2.5h-4.1l-1.3-2.4c-0.4-0.7-1.3-1-2.1-0.6c-0.7,0.4-1,1.3-0.6,2.1l1.8,3.2c0.3,0.5,0.8,0.8,1.3,0.8h5.9 c0.5,0,1-0.3,1.3-0.7l1.5-2.5h4.5l1.5,2.5c0.3,0.5,0.8,0.7,1.3,0.7h5.9c0.6,0,1.1-0.3,1.3-0.8l1.8-3.2 C61.6,47.6,61.3,46.7,60.6,46.2z"/>
	<path class="st0" d="M47.2,64.9l2.9-10.2h-5.9L47.2,64.9z"/>
	<path class="st0" d="M37.5,32.8c2.2,0,4.2,1.2,5.3,3c0.4,0.7,1.3,1,2.1,0.6c0.7-0.4,1-1.3,0.6-2.1c-1.6-2.8-4.7-4.6-7.9-4.6 c-3.2,0-6.3,1.7-7.9,4.6c-0.4,0.7-0.2,1.7,0.6,2.1c0.2,0.1,0.5,0.2,0.8,0.2c0.5,0,1-0.3,1.3-0.8C33.4,34,35.4,32.8,37.5,32.8z"/>
	<path class="st0" d="M35.7,35.1c-0.6,0-1,0.5-1,1c0,0.6,0.5,1,1,1h4c0.6,0,1-0.5,1-1c0-0.6-0.5-1-1-1H35.7z"/>
	<path class="st0" d="M56.8,29.8c-3.2,0-6.3,1.7-7.9,4.6c-0.4,0.7-0.2,1.7,0.6,2.1c0.2,0.1,0.5,0.2,0.8,0.2c0.5,0,1-0.3,1.3-0.8 c1.1-1.9,3.1-3.1,5.3-3.1c2.2,0,4.2,1.2,5.3,3c0.4,0.7,1.3,1,2.1,0.6c0.7-0.4,1-1.3,0.6-2.1C63.1,31.5,60.1,29.8,56.8,29.8z"/>
	<path class="st0" d="M59,37.1c0.6,0,1-0.5,1-1c0-0.6-0.5-1-1-1h-4c-0.6,0-1,0.5-1,1c0,0.6,0.5,1,1,1H59z"/>
	<path class="st0" d="M48.8,52.9c0.6,0,1-0.5,1-1c0-0.6-0.5-1-1-1h-3.1c-0.6,0-1,0.5-1,1c0,0.6,0.5,1,1,1H48.8z"/>
</svg>
