<?xml version="1.0" encoding="utf-8"?>
<svg version="1.1" id="internetexplorer" xmlns="http://www.w3.org/2000/svg" xmlns:xlink="http://www.w3.org/1999/xlink" x="0px" y="0px" viewBox="0 0 96 96" style="enable-background:new 0 0 96 96;" xml:space="preserve">
	<style type="text/css">
		.st0{fill:#F97F27;}
		.st1{fill:#E7E7E7;}
		.st2{fill:#F15B22;}
		.st3{fill:#F88025;}
		.st4{fill:#FFBE60;}
		.st5{fill:#F8921E;}
		.st6{fill:#EE721A;}
		.st7{fill:#313634;}
		.st8{fill:#151716;}
		.st9{fill:#F7951B;}
		.st10{fill:#FFBD5B;}
		.st11{fill:#CCCCCC;}
		.st12{fill:#FA9422;}
		.st13{fill:#E5E5E5;}
		.st14{fill:#E9E7E8;}
		.st15{fill:#FFFFFF;}
	</style>
	<g>
		<polygon class="st0" points="15.7,3 12.5,38.9 17.2,13.4 36.2,18.5 	"/>
		<polygon class="st1" points="17.2,13.4 27.2,26.7 12.5,40.4 12.5,38.9 	"/>
		<polygon class="st2" points="36.2,18.5 27.2,26.7 17.2,13.4 	"/>
		<polygon class="st0" points="80.1,3 83.3,39.2 78.6,13.4 60.1,18.6 	"/>
		<polygon class="st1" points="78.6,13.4 68.6,26.9 83.3,40.4 83.3,39.2 	"/>
		<polygon class="st2" points="60.1,18.6 68.6,26.9 78.6,13.4 	"/>
		<polygon class="st3" points="45.1,18.6 36.6,39.6 27.2,26.7 36.2,18.5 	"/>
		<polygon class="st4" points="21.3,32.2 36.6,39.6 27.2,26.7 	"/>
		<polygon class="st5" points="12.5,40.4 36.6,39.6 21.3,32.2 	"/>
		<polygon class="st3" points="36.6,52.4 36.6,39.6 12.5,40.4 26.6,50.7 	"/>
		<polygon class="st5" points="45.1,18.6 51.3,18.6 59.2,39.6 47.9,25.8 36.6,39.6 	"/>
		<polygon class="st3" points="60.1,18.6 68.6,26.9 59.2,39.6 51.3,18.6 	"/>
		<polygon class="st4" points="47.9,25.8 36.6,39.6 47.9,50.7 59.2,39.6 	"/>
		<polygon class="st4" points="68.6,26.9 74.4,32.2 59.2,39.6 	"/>
		<polygon class="st6" points="36.6,39.6 47.9,50.7 36.6,52.4 	"/>
		<polygon class="st5" points="59.2,39.6 83.3,40.4 74.4,32.2 	"/>
		<polygon class="st6" points="47.9,50.7 59.2,39.6 59.2,52.4 	"/>
		<polygon class="st3" points="83.3,40.4 59.2,52.4 59.2,39.6 	"/>
		<polygon class="st6" points="83.3,40.4 59.2,52.4 69.2,50.7 	"/>
		<polygon class="st6" points="12.5,40.4 36.6,52.4 26.6,50.7 	"/>
		<polygon class="st7" points="26.6,50.7 36.6,52.4 32.5,57.4 	"/>
		<polygon class="st8" points="38.3,57.4 32.5,57.4 36.6,52.4 	"/>
		<polygon class="st7" points="69.4,50.7 59.2,52.4 63.6,57.4 	"/>
		<polygon class="st8" points="57.9,57.4 63.6,57.4 59.2,52.4 	"/>
		<polygon class="st9" points="12.5,40.4 26.6,50.7 20.8,57.4 13,57.4 15.9,47.2 	"/>
		<polygon class="st9" points="83.3,40.4 69.2,50.7 74.9,57.4 82.2,57.4 80.4,46.9 	"/>
		<polygon class="st10" points="80.4,46.9 89.5,57.4 82.2,57.4 	"/>
		<polygon class="st10" points="15.9,47.2 13,57.4 6.5,57.4 	"/>
		<polygon class="st11" points="26.6,50.7 32.5,57.4 20.8,57.4 	"/>
		<polygon class="st11" points="69.2,50.7 75,57.4 63.4,57.4 	"/>
		<polygon class="st12" points="47.9,50.7 36.6,52.4 43.7,79.3 	"/>
		<polygon class="st12" points="59.2,52.4 52,79.3 47.9,50.7 	"/>
		<polygon class="st6" points="43.7,79.3 52,79.3 47.9,50.7 	"/>
		<polygon class="st13" points="20.8,57.4 34.5,75.1 6.5,57.4 	"/>
		<polygon class="st13" points="75,57.4 61.3,75.1 89.3,57.4 	"/>
		<polygon class="st13" points="32.5,57.4 40.6,67.5 38,57.4 	"/>
		<polygon class="st14" points="20.8,57.4 41,69.1 40.6,67.5 32.5,57.4 	"/>
		<polygon class="st13" points="63.4,57.4 55.2,67.5 57.9,57.4 	"/>
		<polygon class="st14" points="75,57.4 54.8,69.1 55.2,67.5 63.4,57.4 	"/>
		<polygon class="st15" points="43.7,79.3 41,69.1 20.8,57.4 34.5,75.1 	"/>
		<polygon class="st15" points="52,79.3 54.7,69.1 75,57.4 61.3,75.1 	"/>
		<polygon class="st8" points="47.9,84 43.7,79.3 52,79.3 	"/>
		<polygon class="st13" points="34.5,75.1 43.7,88.6 47.9,84 43.7,79.3 	"/>
		<polygon class="st13" points="52,79.3 47.9,84 52,88.6 61.3,75.1 	"/>
		<polygon class="st15" points="47.9,84 52,88.6 47.9,93 43.7,88.6 	"/>
	</g>
</svg>
